<svg width="84" height="84" viewBox="0 0 84 84" fill="none" xmlns="http://www.w3.org/2000/svg">
<rect x="2" y="2" width="80" height="80" rx="10" fill="#1B547D"/>
<rect width="84" height="84" rx="10" fill="#1B547D"/>
<path d="M10.5 73.5L15.75 68.25C18.0234 65.9766 19.1601 64.8399 20.5491 64.6824C20.8487 64.6484 21.1513 64.6484 21.4509 64.6824C22.8399 64.8399 23.9766 65.9766 26.25 68.25L26.7699 68.7699C28.5474 70.5474 29.4362 71.4362 30.482 71.7114C31.1493 71.887 31.8507 71.887 32.518 71.7114C33.5638 71.4362 34.4526 70.5474 36.2301 68.7699L37.5384 67.4616C38.4585 66.5415 38.9185 66.0815 39.3693 65.8197C40.8591 64.9544 42.7355 65.1402 44.0266 66.2808C44.4173 66.626 44.7782 67.1673 45.5 68.25V68.25C46.2218 69.3327 46.5827 69.874 46.9734 70.2192C48.2645 71.3598 50.1409 71.5456 51.6307 70.6803C52.0815 70.4185 52.5415 69.9585 53.4616 69.0384L54.7699 67.7301C56.5474 65.9526 57.4362 65.0638 58.482 64.7886C59.1493 64.613 59.8507 64.613 60.518 64.7886C61.5638 65.0638 62.4526 65.9526 64.2301 67.7301L70 73.5" stroke="#FF961D" stroke-width="2" stroke-linejoin="round"/>
<rect x="6" y="3" width="71" height="61" rx="10" fill="#1B547D"/>
<path d="M20.7915 35.7385C20.7915 34.6447 20.7915 34.0977 21.0462 33.6426C21.3009 33.1875 21.767 32.9014 22.6993 32.3293L40.4538 21.4337C40.9629 21.1213 41.2175 20.965 41.4998 20.965C41.7822 20.965 42.0368 21.1213 42.5459 21.4337L60.3004 32.3293C61.2326 32.9014 61.6988 33.1875 61.9535 33.6426C62.2082 34.0977 62.2082 34.6447 62.2082 35.7385V54.3751C62.2082 55.3179 62.2082 55.7893 61.9153 56.0822C61.6224 56.3751 61.151 56.3751 60.2082 56.3751H22.7915C21.8487 56.3751 21.3773 56.3751 21.0844 56.0822C20.7915 55.7893 20.7915 55.3179 20.7915 54.3751V35.7385Z" stroke="white" stroke-width="2"/>
<path d="M14.875 35.4805C14.875 35.7275 14.875 35.851 14.9543 35.8934C15.0336 35.9358 15.1363 35.8672 15.3417 35.7299L40.3888 18.9926C40.9274 18.6327 41.1966 18.4528 41.5 18.4528C41.8034 18.4528 42.0726 18.6327 42.6112 18.9926L67.6583 35.7299C67.8637 35.8672 67.9664 35.9358 68.0457 35.8934C68.125 35.851 68.125 35.7275 68.125 35.4805V32.0274C68.125 31.5041 68.125 31.2424 68.0069 31.0215C67.8889 30.8006 67.6713 30.6552 67.2362 30.3645L42.6112 13.9093C42.0726 13.5494 41.8034 13.3695 41.5 13.3695C41.1966 13.3695 40.9274 13.5494 40.3888 13.9093L15.7638 30.3645C15.3287 30.6552 15.1111 30.8006 14.9931 31.0215C14.875 31.2424 14.875 31.5041 14.875 32.0274V35.4805Z" fill="#FF961D"/>
<path d="M46.8957 41.125H36.104C34.9994 41.125 34.104 42.0204 34.104 43.125V56.225C34.104 56.3078 34.1712 56.375 34.254 56.375H48.7457C48.8285 56.375 48.8957 56.3078 48.8957 56.225V43.125C48.8957 42.0204 48.0002 41.125 46.8957 41.125Z" fill="white"/>
<path d="M53.3335 16.2083C53.3335 15.9321 53.5574 15.7083 53.8335 15.7083H58.7502C59.0263 15.7083 59.2502 15.9321 59.2502 16.2083V25.3749C59.2502 25.6511 59.0263 25.8749 58.7502 25.8749H53.8335C53.5574 25.8749 53.3335 25.6511 53.3335 25.3749V16.2083Z" fill="#FF961D"/>
</svg>
