<svg width="80" height="80" viewBox="0 0 80 80" fill="none" xmlns="http://www.w3.org/2000/svg">
<rect width="80" height="80" rx="10" fill="#1B547D"/>
<rect x="2" y="5" width="75" height="75" rx="10" fill="#1B547D"/>
<path d="M39.4316 35.9316L39.5781 35.9619L39.7197 36.0107C40.0323 36.1407 40.2213 36.3825 40.3213 36.5879C40.4202 36.7913 40.4539 36.9964 40.4697 37.1279C40.5018 37.3938 40.5 37.746 40.5 38.0859V48.375H48.5029C49.2453 48.375 49.9176 48.3728 50.4326 48.4492C50.9231 48.5221 51.5307 48.7015 51.9141 49.2646L51.9873 49.3818L52.0518 49.5049C52.3429 50.121 52.1899 50.7366 52.0039 51.1963C51.9063 51.4376 51.7714 51.7026 51.6143 51.9873L51.0889 52.8965L41.293 69.5498C41.1207 69.8427 40.9436 70.1465 40.7812 70.3594C40.7009 70.4647 40.5676 70.6247 40.3789 70.75C40.1615 70.8944 39.82 71.0214 39.4219 70.9131C39.0236 70.8046 38.7929 70.5218 38.6787 70.2871C38.5798 70.0837 38.5461 69.8786 38.5303 69.7471C38.4982 69.4812 38.5 69.129 38.5 68.7891V58.5H30.4971C29.7547 58.5 29.0824 58.5022 28.5674 58.4258C28.0444 58.3481 27.3881 58.1492 27.0127 57.4932C26.6372 56.8367 26.7978 56.169 26.9961 55.6787C27.1914 55.1961 27.5348 54.6183 27.9111 53.9785L37.707 37.3252L37.9668 36.8906C38.0528 36.7514 38.1376 36.6221 38.2188 36.5156C38.2991 36.4103 38.4324 36.2503 38.6211 36.125C38.8113 35.9987 39.0965 35.8853 39.4316 35.9316Z" fill="#FF961D" stroke="#FF961D" stroke-width="2"/>
<path d="M39.5 13.375C45.7044 13.375 51.1142 16.7747 53.9697 21.8076C54.6874 23.0726 55.2026 23.9794 55.624 24.624C56.0643 25.2973 56.3078 25.5291 56.4355 25.6035L56.5781 25.6719C56.7447 25.7374 56.9926 25.7926 57.4004 25.8271C57.9499 25.8737 58.6711 25.875 59.7168 25.875H63.625L63.8818 25.8818C66.5239 26.0155 68.625 28.1997 68.625 30.875V41.625C68.625 44.3864 66.3864 46.625 63.625 46.625H61.375V45.375C61.375 45.1131 61.3737 44.8633 61.373 44.625H63.625C65.2819 44.625 66.625 43.2819 66.625 41.625V30.875L66.6211 30.7207C66.5434 29.1867 65.3133 27.9566 63.7793 27.8789L63.625 27.875H59.7168C58.7062 27.875 57.8851 27.8757 57.2314 27.8203C56.6546 27.7715 56.1191 27.6741 55.6338 27.4404L55.4287 27.332C54.8567 26.9989 54.3948 26.3992 53.9492 25.7178C53.4849 25.0075 52.9334 24.0345 52.2295 22.7939C49.7147 18.3617 44.9555 15.375 39.5 15.375C33.5556 15.375 28.4379 18.9218 26.1504 24.0186C25.8818 24.6171 25.671 25.0841 25.502 25.4355C25.3811 25.6867 25.2617 25.9212 25.1357 26.1191L25.0078 26.3047C24.7196 26.6817 24.4164 27.0067 24.0225 27.2617C23.7268 27.4531 23.4159 27.5817 23.084 27.6797L22.7451 27.7686C22.2632 27.8818 21.6346 27.875 20.75 27.875C16.1246 27.875 12.375 31.6246 12.375 36.25C12.375 39.7726 14.5507 42.7852 17.6309 44.0225C17.6262 44.4336 17.625 44.8829 17.625 45.375V46.1445C13.4224 44.8185 10.375 40.8908 10.375 36.25C10.375 30.52 15.02 25.875 20.75 25.875C21.7683 25.875 22.0919 25.8681 22.2871 25.8223L22.5176 25.7617C22.7192 25.7022 22.8412 25.6441 22.9355 25.583C23.0613 25.5016 23.2024 25.3732 23.4189 25.0898L23.5117 24.9385C23.5572 24.8564 23.6187 24.7378 23.7002 24.5684C23.8549 24.2468 24.0518 23.8084 24.3252 23.1992C26.9234 17.4101 32.7395 13.375 39.5 13.375Z" fill="white"/>
</svg>
